<svg width="40" height="40" viewBox="0 0 40 40" fill="none" xmlns="http://www.w3.org/2000/svg">
<rect width="40" height="40" rx="20" fill="white"/>
<path d="M22 14.0157V25.9807C22.0015 26.0703 21.9798 26.1587 21.937 26.2373C21.8941 26.316 21.8317 26.3822 21.7556 26.4295C21.6692 26.4809 21.5693 26.505 21.469 26.4988C21.3686 26.4926 21.2725 26.4562 21.1931 26.3945L17.095 23.207C17.0653 23.1835 17.0413 23.1536 17.0248 23.1195C17.0084 23.0854 16.9999 23.048 17 23.0101V16.9901C17.0001 16.9521 17.0089 16.9146 17.0257 16.8805C17.0425 16.8464 17.0668 16.8165 17.0969 16.7932L21.195 13.6057C21.2848 13.5362 21.3956 13.4992 21.5093 13.501C21.6229 13.5029 21.7325 13.5433 21.82 13.6157C21.8775 13.6651 21.9234 13.7266 21.9545 13.7957C21.9856 13.8648 22.0012 13.94 22 14.0157ZM15.75 17.0001H14C13.7348 17.0001 13.4804 17.1055 13.2929 17.293C13.1054 17.4806 13 17.7349 13 18.0001V22.0001C13 22.2653 13.1054 22.5197 13.2929 22.7072C13.4804 22.8948 13.7348 23.0001 14 23.0001H15.75C15.8163 23.0001 15.8799 22.9738 15.9268 22.9269C15.9737 22.88 16 22.8164 16 22.7501V17.2501C16 17.1838 15.9737 17.1202 15.9268 17.0733C15.8799 17.0265 15.8163 17.0001 15.75 17.0001ZM23.6731 18.3026C23.6238 18.346 23.5834 18.3987 23.5544 18.4577C23.5254 18.5167 23.5084 18.5808 23.5042 18.6464C23.5 18.712 23.5088 18.7778 23.5301 18.84C23.5513 18.9022 23.5847 18.9596 23.6281 19.0089C23.8693 19.2828 24.0023 19.6352 24.0023 20.0001C24.0023 20.3651 23.8693 20.7175 23.6281 20.9914C23.5835 21.0404 23.549 21.0979 23.5268 21.1604C23.5046 21.2228 23.495 21.2891 23.4987 21.3554C23.5023 21.4216 23.5191 21.4864 23.548 21.5461C23.577 21.6058 23.6175 21.6591 23.6672 21.703C23.717 21.7468 23.775 21.7803 23.8378 21.8016C23.9006 21.8228 23.9671 21.8313 24.0332 21.8267C24.0994 21.822 24.164 21.8042 24.2232 21.7743C24.2824 21.7444 24.3351 21.7031 24.3781 21.6526C24.7803 21.1961 25.0022 20.6085 25.0022 20.0001C25.0022 19.3917 24.7803 18.8042 24.3781 18.3476C24.3347 18.2982 24.282 18.2577 24.2229 18.2287C24.1639 18.1997 24.0997 18.1826 24.034 18.1784C23.9684 18.1742 23.9025 18.183 23.8403 18.2043C23.778 18.2257 23.7206 18.2591 23.6712 18.3026H23.6731ZM26.2287 16.667C26.1857 16.6156 26.1328 16.5733 26.0731 16.5428C26.0134 16.5122 25.9482 16.494 25.8813 16.4891C25.8145 16.4843 25.7473 16.493 25.6839 16.5146C25.6204 16.5363 25.5619 16.5704 25.512 16.6151C25.462 16.6598 25.4215 16.7141 25.3929 16.7748C25.3644 16.8354 25.3483 16.9012 25.3457 16.9682C25.343 17.0352 25.3539 17.1021 25.3776 17.1648C25.4013 17.2275 25.4374 17.2848 25.4837 17.3332C26.1398 18.0666 26.5025 19.0161 26.5025 20.0001C26.5025 20.9841 26.1398 21.9336 25.4837 22.667C25.4374 22.7155 25.4013 22.7728 25.3776 22.8355C25.3539 22.8982 25.343 22.965 25.3457 23.032C25.3483 23.099 25.3644 23.1648 25.3929 23.2255C25.4215 23.2861 25.462 23.3404 25.512 23.3851C25.5619 23.4298 25.6204 23.464 25.6839 23.4856C25.7473 23.5073 25.8145 23.5159 25.8813 23.5111C25.9482 23.5063 26.0134 23.488 26.0731 23.4575C26.1328 23.4269 26.1857 23.3847 26.2287 23.3332C27.0486 22.4166 27.5018 21.2299 27.5018 20.0001C27.5018 18.7703 27.0486 17.5837 26.2287 16.667Z" fill="black"/>
</svg>
