<svg width="26" height="26" viewBox="0 0 26 26" fill="none" xmlns="http://www.w3.org/2000/svg">
<rect width="26" height="26" rx="8" fill="white"/>
<path d="M19.5625 17.375H18.6875V11.25C18.8035 11.25 18.9148 11.2039 18.9969 11.1219C19.0789 11.0398 19.125 10.9285 19.125 10.8125C19.125 10.6965 19.0789 10.5852 18.9969 10.5031C18.9148 10.4211 18.8035 10.375 18.6875 10.375H16.0625V8.625C16.1785 8.625 16.2898 8.57891 16.3719 8.49686C16.4539 8.41481 16.5 8.30353 16.5 8.1875C16.5 8.07147 16.4539 7.96019 16.3719 7.87814C16.2898 7.79609 16.1785 7.75 16.0625 7.75H8.1875C8.07147 7.75 7.96019 7.79609 7.87814 7.87814C7.79609 7.96019 7.75 8.07147 7.75 8.1875C7.75 8.30353 7.79609 8.41481 7.87814 8.49686C7.96019 8.57891 8.07147 8.625 8.1875 8.625V17.375H7.3125C7.19647 17.375 7.08519 17.4211 7.00314 17.5031C6.92109 17.5852 6.875 17.6965 6.875 17.8125C6.875 17.9285 6.92109 18.0398 7.00314 18.1219C7.08519 18.2039 7.19647 18.25 7.3125 18.25H19.5625C19.6785 18.25 19.7898 18.2039 19.8719 18.1219C19.9539 18.0398 20 17.9285 20 17.8125C20 17.6965 19.9539 17.5852 19.8719 17.5031C19.7898 17.4211 19.6785 17.375 19.5625 17.375ZM10.375 9.9375H11.25C11.366 9.9375 11.4773 9.98359 11.5594 10.0656C11.6414 10.1477 11.6875 10.259 11.6875 10.375C11.6875 10.491 11.6414 10.6023 11.5594 10.6844C11.4773 10.7664 11.366 10.8125 11.25 10.8125H10.375C10.259 10.8125 10.1477 10.7664 10.0656 10.6844C9.98359 10.6023 9.9375 10.491 9.9375 10.375C9.9375 10.259 9.98359 10.1477 10.0656 10.0656C10.1477 9.98359 10.259 9.9375 10.375 9.9375ZM9.9375 12.5625C9.9375 12.4465 9.98359 12.3352 10.0656 12.2531C10.1477 12.1711 10.259 12.125 10.375 12.125H11.25C11.366 12.125 11.4773 12.1711 11.5594 12.2531C11.6414 12.3352 11.6875 12.4465 11.6875 12.5625C11.6875 12.6785 11.6414 12.7898 11.5594 12.8719C11.4773 12.9539 11.366 13 11.25 13H10.375C10.259 13 10.1477 12.9539 10.0656 12.8719C9.98359 12.7898 9.9375 12.6785 9.9375 12.5625ZM13.4375 17.375H10.8125V14.75H13.4375V17.375ZM13.875 13H13C12.884 13 12.7727 12.9539 12.6906 12.8719C12.6086 12.7898 12.5625 12.6785 12.5625 12.5625C12.5625 12.4465 12.6086 12.3352 12.6906 12.2531C12.7727 12.1711 12.884 12.125 13 12.125H13.875C13.991 12.125 14.1023 12.1711 14.1844 12.2531C14.2664 12.3352 14.3125 12.4465 14.3125 12.5625C14.3125 12.6785 14.2664 12.7898 14.1844 12.8719C14.1023 12.9539 13.991 13 13.875 13ZM13.875 10.8125H13C12.884 10.8125 12.7727 10.7664 12.6906 10.6844C12.6086 10.6023 12.5625 10.491 12.5625 10.375C12.5625 10.259 12.6086 10.1477 12.6906 10.0656C12.7727 9.98359 12.884 9.9375 13 9.9375H13.875C13.991 9.9375 14.1023 9.98359 14.1844 10.0656C14.2664 10.1477 14.3125 10.259 14.3125 10.375C14.3125 10.491 14.2664 10.6023 14.1844 10.6844C14.1023 10.7664 13.991 10.8125 13.875 10.8125ZM17.8125 17.375H16.0625V11.25H17.8125V17.375Z" fill="#212121"/>
</svg>
