<svg width="40" height="40" viewBox="0 0 40 40" fill="none" xmlns="http://www.w3.org/2000/svg">
<rect width="40" height="40" rx="20" fill="white"/>
<path d="M18.8538 21.1462C18.9002 21.1927 18.9371 21.2478 18.9623 21.3085C18.9874 21.3692 19.0004 21.4343 19.0004 21.5C19.0004 21.5657 18.9874 21.6308 18.9623 21.6915C18.9371 21.7522 18.9002 21.8073 18.8538 21.8538L17.2069 23.5L18.3538 24.6462C18.4238 24.7162 18.4714 24.8053 18.4908 24.9023C18.5101 24.9994 18.5002 25.1 18.4623 25.1914C18.4244 25.2828 18.3603 25.3609 18.278 25.4159C18.1957 25.4708 18.0989 25.5001 18 25.5H15C14.8674 25.5 14.7402 25.4473 14.6464 25.3536C14.5527 25.2598 14.5 25.1326 14.5 25V22C14.4999 21.9011 14.5292 21.8043 14.5841 21.722C14.6391 21.6397 14.7172 21.5756 14.8086 21.5377C14.9 21.4998 15.0006 21.4899 15.0977 21.5092C15.1947 21.5286 15.2838 21.5762 15.3538 21.6462L16.5 22.7931L18.1463 21.1462C18.1927 21.0998 18.2478 21.0629 18.3085 21.0377C18.3692 21.0126 18.4343 20.9996 18.5 20.9996C18.5657 20.9996 18.6308 21.0126 18.6915 21.0377C18.7522 21.0629 18.8073 21.0998 18.8538 21.1462ZM17.2069 16.5L18.3538 15.3538C18.4238 15.2838 18.4714 15.1947 18.4908 15.0977C18.5101 15.0006 18.5002 14.9 18.4623 14.8086C18.4244 14.7172 18.3603 14.6391 18.278 14.5841C18.1957 14.5292 18.0989 14.4999 18 14.5H15C14.8674 14.5 14.7402 14.5527 14.6464 14.6464C14.5527 14.7402 14.5 14.8674 14.5 15V18C14.4999 18.0989 14.5292 18.1957 14.5841 18.278C14.6391 18.3603 14.7172 18.4244 14.8086 18.4623C14.9 18.5002 15.0006 18.5101 15.0977 18.4908C15.1947 18.4714 15.2838 18.4238 15.3538 18.3538L16.5 17.2069L18.1463 18.8538C18.2401 18.9476 18.3673 19.0003 18.5 19.0003C18.6327 19.0003 18.7599 18.9476 18.8538 18.8538C18.9476 18.7599 19.0003 18.6327 19.0003 18.5C19.0003 18.3673 18.9476 18.2401 18.8538 18.1463L17.2069 16.5ZM25 14.5H22C21.9011 14.4999 21.8043 14.5292 21.722 14.5841C21.6397 14.6391 21.5756 14.7172 21.5377 14.8086C21.4998 14.9 21.4899 15.0006 21.5092 15.0977C21.5286 15.1947 21.5762 15.2838 21.6462 15.3538L22.7931 16.5L21.1462 18.1463C21.0524 18.2401 20.9997 18.3673 20.9997 18.5C20.9997 18.6327 21.0524 18.7599 21.1462 18.8538C21.2401 18.9476 21.3673 19.0003 21.5 19.0003C21.6327 19.0003 21.7599 18.9476 21.8538 18.8538L23.5 17.2069L24.6462 18.3538C24.7162 18.4238 24.8053 18.4714 24.9023 18.4908C24.9994 18.5101 25.1 18.5002 25.1914 18.4623C25.2828 18.4244 25.3609 18.3603 25.4159 18.278C25.4708 18.1957 25.5001 18.0989 25.5 18V15C25.5 14.8674 25.4473 14.7402 25.3536 14.6464C25.2598 14.5527 25.1326 14.5 25 14.5ZM25.1912 21.5381C25.0999 21.5002 24.9994 21.4903 24.9023 21.5095C24.8053 21.5288 24.7162 21.5763 24.6462 21.6462L23.5 22.7931L21.8538 21.1462C21.7599 21.0524 21.6327 20.9997 21.5 20.9997C21.3673 20.9997 21.2401 21.0524 21.1462 21.1462C21.0524 21.2401 20.9997 21.3673 20.9997 21.5C20.9997 21.6327 21.0524 21.7599 21.1462 21.8538L22.7931 23.5L21.6462 24.6462C21.5762 24.7162 21.5286 24.8053 21.5092 24.9023C21.4899 24.9994 21.4998 25.1 21.5377 25.1914C21.5756 25.2828 21.6397 25.3609 21.722 25.4159C21.8043 25.4708 21.9011 25.5001 22 25.5H25C25.1326 25.5 25.2598 25.4473 25.3536 25.3536C25.4473 25.2598 25.5 25.1326 25.5 25V22C25.5 21.9011 25.4706 21.8044 25.4157 21.7222C25.3607 21.64 25.2826 21.576 25.1912 21.5381Z" fill="black"/>
</svg>
